<mxfile host="Electron" modified="2023-06-07T12:40:03.054Z" agent="Mozilla/5.0 (X11; Linux x86_64) AppleWebKit/537.36 (KHTML, like Gecko) draw.io/21.2.1 Chrome/112.0.5615.87 Electron/24.1.2 Safari/537.36" etag="JEMQACTwC-ImOosT9mt0" version="21.2.1" type="device">
  <diagram name="Seite-1" id="yg0N79Os0NL9OwQJXT_5">
    <mxGraphModel dx="1195" dy="836" grid="1" gridSize="10" guides="1" tooltips="1" connect="1" arrows="1" fold="1" page="1" pageScale="1" pageWidth="827" pageHeight="1169" math="0" shadow="0">
      <root>
        <mxCell id="0" />
        <mxCell id="1" parent="0" />
        <mxCell id="DvOUAPL_K_GH1Hb8-OZM-5" value="" style="edgeStyle=orthogonalEdgeStyle;rounded=0;orthogonalLoop=1;jettySize=auto;html=1;" edge="1" parent="1" source="DvOUAPL_K_GH1Hb8-OZM-1" target="DvOUAPL_K_GH1Hb8-OZM-2">
          <mxGeometry relative="1" as="geometry">
            <Array as="points">
              <mxPoint x="290" y="290" />
              <mxPoint x="290" y="290" />
            </Array>
          </mxGeometry>
        </mxCell>
        <mxCell id="DvOUAPL_K_GH1Hb8-OZM-1" value="&lt;font style=&quot;font-size: 20px;&quot;&gt;ESP&lt;/font&gt;" style="rounded=0;whiteSpace=wrap;html=1;" vertex="1" parent="1">
          <mxGeometry x="120" y="280" width="120" height="60" as="geometry" />
        </mxCell>
        <mxCell id="DvOUAPL_K_GH1Hb8-OZM-6" value="" style="edgeStyle=orthogonalEdgeStyle;rounded=0;orthogonalLoop=1;jettySize=auto;html=1;" edge="1" parent="1" source="DvOUAPL_K_GH1Hb8-OZM-2" target="DvOUAPL_K_GH1Hb8-OZM-1">
          <mxGeometry relative="1" as="geometry">
            <Array as="points">
              <mxPoint x="290" y="330" />
              <mxPoint x="290" y="330" />
            </Array>
          </mxGeometry>
        </mxCell>
        <mxCell id="DvOUAPL_K_GH1Hb8-OZM-14" value="" style="edgeStyle=orthogonalEdgeStyle;rounded=0;orthogonalLoop=1;jettySize=auto;html=1;exitX=0.5;exitY=1;exitDx=0;exitDy=0;" edge="1" parent="1" source="DvOUAPL_K_GH1Hb8-OZM-2" target="DvOUAPL_K_GH1Hb8-OZM-13">
          <mxGeometry relative="1" as="geometry" />
        </mxCell>
        <mxCell id="DvOUAPL_K_GH1Hb8-OZM-2" value="&lt;font style=&quot;font-size: 20px;&quot;&gt;Arduino&lt;/font&gt;" style="rounded=0;whiteSpace=wrap;html=1;" vertex="1" parent="1">
          <mxGeometry x="360" y="280" width="120" height="60" as="geometry" />
        </mxCell>
        <mxCell id="DvOUAPL_K_GH1Hb8-OZM-3" value="&lt;font style=&quot;font-size: 20px;&quot;&gt;WLAN&lt;/font&gt;" style="html=1;verticalLabelPosition=bottom;align=center;labelBackgroundColor=#ffffff;verticalAlign=top;strokeWidth=2;strokeColor=#0080F0;shadow=0;dashed=0;shape=mxgraph.ios7.icons.wifi;pointerEvents=1;rotation=-45;" vertex="1" parent="1">
          <mxGeometry x="80" y="250" width="50" height="40" as="geometry" />
        </mxCell>
        <mxCell id="DvOUAPL_K_GH1Hb8-OZM-7" value="&lt;font style=&quot;font-size: 20px;&quot;&gt;UART&lt;/font&gt;" style="text;html=1;strokeColor=none;fillColor=none;align=center;verticalAlign=middle;whiteSpace=wrap;rounded=0;" vertex="1" parent="1">
          <mxGeometry x="270" y="295" width="60" height="30" as="geometry" />
        </mxCell>
        <mxCell id="DvOUAPL_K_GH1Hb8-OZM-10" value="&lt;font style=&quot;font-size: 18px;&quot;&gt;Anforderung&lt;/font&gt;" style="text;html=1;strokeColor=none;fillColor=none;align=center;verticalAlign=middle;whiteSpace=wrap;rounded=0;" vertex="1" parent="1">
          <mxGeometry x="270" y="255" width="60" height="30" as="geometry" />
        </mxCell>
        <mxCell id="DvOUAPL_K_GH1Hb8-OZM-11" value="&lt;font style=&quot;font-size: 18px;&quot;&gt;Messdaten&lt;/font&gt;" style="text;html=1;strokeColor=none;fillColor=none;align=center;verticalAlign=middle;whiteSpace=wrap;rounded=0;" vertex="1" parent="1">
          <mxGeometry x="270" y="340" width="60" height="30" as="geometry" />
        </mxCell>
        <mxCell id="DvOUAPL_K_GH1Hb8-OZM-13" value="&lt;font style=&quot;font-size: 18px;&quot;&gt;Hardware&lt;/font&gt;" style="whiteSpace=wrap;html=1;rounded=0;" vertex="1" parent="1">
          <mxGeometry x="370" y="360" width="100" height="40" as="geometry" />
        </mxCell>
        <mxCell id="DvOUAPL_K_GH1Hb8-OZM-17" style="edgeStyle=orthogonalEdgeStyle;rounded=0;orthogonalLoop=1;jettySize=auto;html=1;exitX=0.5;exitY=0;exitDx=0;exitDy=0;entryX=1;entryY=0.5;entryDx=0;entryDy=0;" edge="1" parent="1" source="DvOUAPL_K_GH1Hb8-OZM-15" target="DvOUAPL_K_GH1Hb8-OZM-2">
          <mxGeometry relative="1" as="geometry" />
        </mxCell>
        <mxCell id="DvOUAPL_K_GH1Hb8-OZM-15" value="&lt;font style=&quot;font-size: 18px;&quot;&gt;Sensoren&lt;/font&gt;" style="whiteSpace=wrap;html=1;rounded=0;" vertex="1" parent="1">
          <mxGeometry x="480" y="360" width="100" height="40" as="geometry" />
        </mxCell>
      </root>
    </mxGraphModel>
  </diagram>
</mxfile>
